<svg width="20" height="20" viewBox="0 0 20 20" fill="none" xmlns="http://www.w3.org/2000/svg">
<path fill-rule="evenodd" clip-rule="evenodd" d="M9.03224 4.29033L8.96569 4.21967C8.6773 3.94931 8.22351 3.92851 7.90968 4.15728L7.83431 4.21967L2.23431 9.46967L2.2012 9.50264L2.15707 9.55352L2.09974 9.63695L2.05698 9.7215L2.02868 9.80051L2.00553 9.91143L2 10L2.00223 10.0564L2.01619 10.1505L2.03979 10.2341L2.07494 10.3174L2.1168 10.3905L2.17575 10.4691L2.23431 10.5303L7.83431 15.7803C8.14673 16.0732 8.65327 16.0732 8.96569 15.7803C9.25407 15.51 9.27626 15.0845 9.03224 14.7903L8.96569 14.7197L4.7328 10.75H17.2C17.6418 10.75 18 10.4142 18 10C18 9.58579 17.6418 9.25 17.2 9.25H4.7312L8.96569 5.28033C9.25407 5.00997 9.27626 4.58454 9.03224 4.29033L8.96569 4.21967L9.03224 4.29033Z" fill="#3B3A39"/>
</svg>
