<svg width="15" height="15" viewBox="0 0 15 15" fill="none" xmlns="http://www.w3.org/2000/svg">
<path fill-rule="evenodd" clip-rule="evenodd" d="M11.25 0C11.6642 0 12 0.335786 12 0.75V1.5H12.75C13.9926 1.5 15 2.50736 15 3.75V12.75C15 13.9926 13.9926 15 12.75 15H2.25C1.00736 15 0 13.9926 0 12.75V3.75C0 2.50736 1.00736 1.5 2.25 1.5H3V0.75C3 0.335786 3.33579 0 3.75 0C4.16421 0 4.5 0.335786 4.5 0.75V1.5H10.5V0.75C10.5 0.335786 10.8358 0 11.25 0ZM1.5 7.5V12.75C1.5 13.1642 1.83579 13.5 2.25 13.5H12.75C13.1642 13.5 13.5 13.1642 13.5 12.75V7.5H1.5ZM1.5 6H13.5V3.75C13.5 3.33579 13.1642 3 12.75 3H12V3.75C12 4.16421 11.6642 4.5 11.25 4.5C10.8358 4.5 10.5 4.16421 10.5 3.75V3H4.5V3.75C4.5 4.16421 4.16421 4.5 3.75 4.5C3.33579 4.5 3 4.16421 3 3.75V3H2.25C1.83579 3 1.5 3.33579 1.5 3.75V6Z" fill="#808080"/>
</svg>
