<svg width="12" height="12" viewBox="0 0 12 12" fill="none" xmlns="http://www.w3.org/2000/svg">
<path fill-rule="evenodd" clip-rule="evenodd" d="M0.516045 0.732938C0.802686 0.433922 1.27745 0.423891 1.57647 0.710531L5.72732 4.6896L9.70644 0.538685C9.99308 0.23967 10.4679 0.229638 10.7669 0.516279C11.0659 0.802919 11.0759 1.27769 10.7893 1.5767L6.81015 5.72761L10.961 9.70668C11.26 9.99332 11.27 10.4681 10.9834 10.7671C10.6968 11.0661 10.222 11.0761 9.92298 10.7895L5.77213 6.81044L1.79313 10.9612C1.50648 11.2602 1.03172 11.2703 0.732702 10.9836C0.433686 10.697 0.423655 10.2222 0.710295 9.92321L4.6893 5.77243L0.538452 1.79336C0.239437 1.50672 0.229405 1.03195 0.516045 0.732938Z" fill="#E33940"/>
</svg>
