<svg width="17" height="17" viewBox="0 0 17 17" fill="none" xmlns="http://www.w3.org/2000/svg">
<path fill-rule="evenodd" clip-rule="evenodd" d="M8.50006 1.80599C12.4229 1.80599 15.6031 4.97731 15.6031 8.88932C15.6031 10.0114 15.3418 11.0714 14.8769 12.0132C14.7956 12.1778 14.7669 12.3686 14.8056 12.5567L15.4866 15.8657L12.057 15.2258C11.8772 15.1923 11.6959 15.2194 11.5379 15.2941C10.6174 15.7291 9.58782 15.9727 8.50006 15.9727C4.57718 15.9727 1.39705 12.8013 1.39705 8.88932C1.39705 4.97731 4.57718 1.80599 8.50006 1.80599ZM16.4387 8.88932C16.4387 4.51707 12.8845 0.972656 8.50006 0.972656C4.11566 0.972656 0.561403 4.51707 0.561403 8.88932C0.561403 13.2616 4.11566 16.806 8.50006 16.806C9.71417 16.806 10.8657 16.5339 11.8957 16.0472C11.9004 16.045 11.9031 16.045 11.9036 16.045C11.9036 16.045 11.9036 16.045 11.9036 16.045L15.3329 16.6849C15.9164 16.7937 16.4245 16.2781 16.3052 15.6982L15.6243 12.3895C15.6243 12.3895 15.6243 12.3895 15.6243 12.3894C15.6243 12.3889 15.6242 12.3861 15.6266 12.3812C16.1468 11.3274 16.4387 10.1418 16.4387 8.88932Z" fill="#E33940" stroke="#E33940" stroke-width="0.3"/>
<path fill-rule="evenodd" clip-rule="evenodd" d="M4.32183 8.47262C4.09107 8.47262 3.90401 8.65916 3.90401 8.88928C3.90401 9.1194 4.09107 9.30595 4.32183 9.30595C4.55259 9.30595 4.73966 9.1194 4.73966 8.88928C4.73966 8.65916 4.55259 8.47262 4.32183 8.47262ZM3.06836 8.88928C3.06836 8.19893 3.62956 7.63928 4.32183 7.63928C5.01411 7.63928 5.5753 8.19893 5.5753 8.88928C5.5753 9.57964 5.01411 10.1393 4.32183 10.1393C3.62956 10.1393 3.06836 9.57964 3.06836 8.88928Z" fill="#E33940" stroke="#E33940" stroke-width="0.3" stroke-linejoin="round"/>
<path fill-rule="evenodd" clip-rule="evenodd" d="M8.50005 8.47262C8.2693 8.47262 8.08223 8.65916 8.08223 8.88928C8.08223 9.1194 8.2693 9.30595 8.50005 9.30595C8.73081 9.30595 8.91788 9.1194 8.91788 8.88928C8.91788 8.65916 8.73081 8.47262 8.50005 8.47262ZM7.24658 8.88928C7.24658 8.19893 7.80778 7.63928 8.50005 7.63928C9.19233 7.63928 9.75353 8.19893 9.75353 8.88928C9.75353 9.57964 9.19233 10.1393 8.50005 10.1393C7.80778 10.1393 7.24658 9.57964 7.24658 8.88928Z" fill="#E33940" stroke="#E33940" stroke-width="0.3" stroke-linejoin="round"/>
<path fill-rule="evenodd" clip-rule="evenodd" d="M12.6783 8.47262C12.4475 8.47262 12.2605 8.65916 12.2605 8.88928C12.2605 9.1194 12.4475 9.30595 12.6783 9.30595C12.909 9.30595 13.0961 9.1194 13.0961 8.88928C13.0961 8.65916 12.909 8.47262 12.6783 8.47262ZM11.4248 8.88928C11.4248 8.19893 11.986 7.63928 12.6783 7.63928C13.3706 7.63928 13.9317 8.19893 13.9317 8.88928C13.9317 9.57964 13.3706 10.1393 12.6783 10.1393C11.986 10.1393 11.4248 9.57964 11.4248 8.88928Z" fill="#E33940" stroke="#E33940" stroke-width="0.3" stroke-linejoin="round"/>
</svg>
