<svg width="68" height="68" viewBox="0 0 68 68" fill="none" xmlns="http://www.w3.org/2000/svg">
<g filter="url(#filter0_dd_253_2653)">
<circle cx="34" cy="34" r="30" fill="white"/>
</g>
<path fill-rule="evenodd" clip-rule="evenodd" d="M34 21.3333C30.3181 21.3333 27.3333 24.3181 27.3333 28C27.3333 31.6819 30.3181 34.6667 34 34.6667C37.6819 34.6667 40.6667 31.6819 40.6667 28C40.6667 24.3181 37.6819 21.3333 34 21.3333ZM26 28C26 23.5817 29.5817 20 34 20C38.4183 20 42 23.5817 42 28C42 32.4183 38.4183 36 34 36C29.5817 36 26 32.4183 26 28Z" fill="#E33940"/>
<path fill-rule="evenodd" clip-rule="evenodd" d="M34 36C27.9122 36 22.8912 39.8294 21.6375 44.8539C21.4143 45.7483 22.1689 46.6667 23.3334 46.6667H44.6667C45.8311 46.6667 46.5858 45.7483 46.3626 44.8539C45.1088 39.8294 40.0878 36 34 36ZM20.3438 44.531C21.7635 38.8417 27.3765 34.6667 34 34.6667C40.6235 34.6667 46.2366 38.8417 47.6563 44.531C48.1462 46.4945 46.4478 48 44.6667 48H23.3334C21.5523 48 19.8538 46.4945 20.3438 44.531Z" fill="#E33940"/>
<defs>
<filter id="filter0_dd_253_2653" x="0" y="0" width="68" height="68" filterUnits="userSpaceOnUse" color-interpolation-filters="sRGB">
<feFlood flood-opacity="0" result="BackgroundImageFix"/>
<feColorMatrix in="SourceAlpha" type="matrix" values="0 0 0 0 0 0 0 0 0 0 0 0 0 0 0 0 0 0 127 0" result="hardAlpha"/>
<feMorphology radius="1" operator="dilate" in="SourceAlpha" result="effect1_dropShadow_253_2653"/>
<feOffset dx="1" dy="1"/>
<feGaussianBlur stdDeviation="1"/>
<feColorMatrix type="matrix" values="0 0 0 0 0.231373 0 0 0 0 0.227451 0 0 0 0 0.223529 0 0 0 0.07 0"/>
<feBlend mode="normal" in2="BackgroundImageFix" result="effect1_dropShadow_253_2653"/>
<feColorMatrix in="SourceAlpha" type="matrix" values="0 0 0 0 0 0 0 0 0 0 0 0 0 0 0 0 0 0 127 0" result="hardAlpha"/>
<feMorphology radius="1" operator="dilate" in="SourceAlpha" result="effect2_dropShadow_253_2653"/>
<feOffset dx="-1" dy="-1"/>
<feGaussianBlur stdDeviation="1"/>
<feColorMatrix type="matrix" values="0 0 0 0 0.231373 0 0 0 0 0.227451 0 0 0 0 0.223529 0 0 0 0.07 0"/>
<feBlend mode="normal" in2="effect1_dropShadow_253_2653" result="effect2_dropShadow_253_2653"/>
<feBlend mode="normal" in="SourceGraphic" in2="effect2_dropShadow_253_2653" result="shape"/>
</filter>
</defs>
</svg>
