<svg width="18" height="18" viewBox="0 0 18 18" fill="none" xmlns="http://www.w3.org/2000/svg">
<path fill-rule="evenodd" clip-rule="evenodd" d="M15.1414 4.98378C15.2906 5.13319 15.3744 5.33573 15.3744 5.54691C15.3744 5.75808 15.2906 5.96061 15.1414 6.11003L7.43827 13.8132C7.28885 13.9623 7.08632 14.0462 6.87515 14.0462C6.66397 14.0462 6.46143 13.9623 6.31202 13.8132L2.8589 10.36C2.71814 10.209 2.64151 10.0092 2.64514 9.80272C2.64879 9.59628 2.73242 9.39931 2.87843 9.2533C3.02442 9.1073 3.2214 9.02367 3.42784 9.02003C3.63429 9.01638 3.83408 9.09302 3.98515 9.23378L6.87515 12.1238L14.0151 4.98378C14.1645 4.83455 14.367 4.75073 14.5783 4.75073C14.7894 4.75073 14.992 4.83455 15.1414 4.98378Z" fill="white"/>
</svg>
