<svg width="16" height="17" viewBox="0 0 16 17" fill="none" xmlns="http://www.w3.org/2000/svg">
<path fill-rule="evenodd" clip-rule="evenodd" d="M2.38678 16.9893C1.0686 16.9893 0 15.9147 0 14.5893V4.98926C0 3.66377 1.0686 2.58926 2.38678 2.58926H3.18237V1.78926C3.18237 1.34743 3.53857 0.989258 3.97796 0.989258C4.41736 0.989258 4.77355 1.34743 4.77355 1.78926V2.58926H11.1383V1.78926C11.1383 1.34743 11.4945 0.989258 11.9339 0.989258C12.3733 0.989258 12.7295 1.34743 12.7295 1.78926V2.58926H13.5251C14.8432 2.58926 15.9118 3.66377 15.9118 4.98926V14.5893C15.9118 15.9147 14.8432 16.9893 13.5251 16.9893H2.38678ZM4.77315 12.9893H1.59078V14.5893C1.59078 15.0311 1.94698 15.3893 2.38637 15.3893H4.77315V12.9893ZM9.54748 12.9893H6.36511V15.3893H9.54748V12.9893ZM14.3206 12.9893H11.1382V15.3893H13.525C13.9644 15.3893 14.3206 15.0311 14.3206 14.5893V12.9893ZM4.77315 8.98926H1.59078V11.3893H4.77315V8.98926ZM9.54748 8.98926H6.36511V11.3893H9.54748V8.98926ZM14.3206 8.98926H11.1382V11.3893H14.3206V8.98926ZM3.18196 4.18945H2.38637C1.94698 4.18945 1.59078 4.54763 1.59078 4.98945V7.38945H14.3203V4.98945C14.3203 4.54763 13.9641 4.18945 13.5247 4.18945H12.7291V4.98945C12.7291 5.43128 12.3729 5.78945 11.9335 5.78945C11.4941 5.78945 11.1379 5.43128 11.1379 4.98945V4.18945H4.77315V4.98945C4.77315 5.43128 4.41695 5.78945 3.97755 5.78945C3.53816 5.78945 3.18196 5.43128 3.18196 4.98945V4.18945Z" fill="#E33940"/>
</svg>
