<svg width="121" height="86" viewBox="0 0 121 86" fill="none" xmlns="http://www.w3.org/2000/svg">
<path d="M1.73517 81.7801C1.37679 81.7801 1.11159 81.6367 0.93957 81.35C0.781884 81.049 0.774716 80.7479 0.918067 80.4469L7.15384 65.6101C7.32586 65.1943 7.61256 64.9865 8.01394 64.9865C8.444 64.9865 8.74503 65.1943 8.91706 65.6101L15.1743 80.4684C15.3033 80.7838 15.2818 81.0848 15.1098 81.3715C14.9521 81.6439 14.7013 81.7801 14.3572 81.7801C14.1709 81.7801 13.9989 81.7299 13.8412 81.6295C13.6835 81.5292 13.5688 81.393 13.4971 81.221L7.73441 67.2013H8.4225L2.59527 81.221C2.50926 81.4073 2.38742 81.5507 2.22973 81.651C2.08638 81.7371 1.92152 81.7801 1.73517 81.7801Z" fill="#3B3A39"/>
<path d="M25.9789 81.9951C24.7318 81.9951 23.5849 81.7801 22.5385 81.35C21.492 80.9199 20.5817 80.325 19.8076 79.5653C19.0479 78.7912 18.4601 77.8809 18.0444 76.8344C17.6287 75.7736 17.4209 74.6197 17.4209 73.3725C17.4209 72.1254 17.6287 70.9786 18.0444 69.9321C18.4601 68.8856 19.0479 67.9825 19.8076 67.2228C20.5817 66.4487 21.492 65.8466 22.5385 65.4165C23.5849 64.9865 24.7318 64.7715 25.9789 64.7715C27.2261 64.7715 28.3657 64.9865 29.3978 65.4165C30.4443 65.8466 31.3546 66.4487 32.1287 67.2228C32.9028 67.9825 33.4977 68.8856 33.9134 69.9321C34.3291 70.9786 34.537 72.1254 34.537 73.3725C34.537 74.6197 34.3291 75.7736 33.9134 76.8344C33.4977 77.8809 32.9028 78.7912 32.1287 79.5653C31.3546 80.325 30.4443 80.9199 29.3978 81.35C28.3657 81.7801 27.2261 81.9951 25.9789 81.9951ZM25.9789 80.2749C26.9537 80.2749 27.8496 80.1028 28.6667 79.7588C29.4982 79.4004 30.2149 78.913 30.817 78.2966C31.4334 77.6659 31.9065 76.9348 32.2362 76.1034C32.5659 75.2576 32.7307 74.3473 32.7307 73.3725C32.7307 72.3977 32.5659 71.4946 32.2362 70.6632C31.9065 69.8174 31.4334 69.0863 30.817 68.4699C30.2149 67.8392 29.4982 67.3518 28.6667 67.0077C27.8496 66.6637 26.9537 66.4917 25.9789 66.4917C25.0041 66.4917 24.101 66.6637 23.2696 67.0077C22.4381 67.3518 21.7214 67.8392 21.1193 68.4699C20.5172 69.0863 20.0442 69.8174 19.7001 70.6632C19.3704 71.4946 19.2056 72.3977 19.2056 73.3725C19.2056 74.3473 19.3704 75.2576 19.7001 76.1034C20.0442 76.9348 20.5172 77.6659 21.1193 78.2966C21.7214 78.913 22.4381 79.4004 23.2696 79.7588C24.101 80.1028 25.0041 80.2749 25.9789 80.2749Z" fill="#3B3A39"/>
<path d="M50.7693 81.5435C50.5973 81.7155 50.3751 81.7944 50.1027 81.7801C49.8303 81.7801 49.6153 81.6869 49.4576 81.5005L42.4693 73.2435L48.9201 65.2875C49.0921 65.0868 49.3071 64.9865 49.5651 64.9865C49.8232 64.9721 50.0382 65.0582 50.2102 65.2445C50.3822 65.4309 50.4611 65.6316 50.4468 65.8466C50.4468 66.0473 50.3679 66.2408 50.2102 66.4272L44.684 73.136L50.8123 80.3179C50.9843 80.5186 51.0632 80.7264 51.0488 80.9415C51.0488 81.1565 50.9556 81.3572 50.7693 81.5435ZM39.8029 81.7801C39.5306 81.7801 39.3084 81.694 39.1364 81.522C38.9643 81.35 38.8783 81.1278 38.8783 80.8554V65.9111C38.8783 65.6387 38.9643 65.4165 39.1364 65.2445C39.3084 65.0725 39.5306 64.9865 39.8029 64.9865C40.0753 64.9865 40.2975 65.0725 40.4695 65.2445C40.6415 65.4165 40.7276 65.6387 40.7276 65.9111V72.4479H44.168V74.1036H40.7276V80.8554C40.7276 81.1278 40.6415 81.35 40.4695 81.522C40.2975 81.694 40.0753 81.7801 39.8029 81.7801Z" fill="#3B3A39"/>
<path d="M53.9769 81.7801C53.6185 81.7801 53.3533 81.6367 53.1813 81.35C53.0236 81.049 53.0093 80.7479 53.1383 80.4469L59.374 65.6101C59.5604 65.1943 59.8614 64.9865 60.2772 64.9865C60.6929 64.9865 60.9796 65.1943 61.1373 65.6101L67.3945 80.4684C67.5379 80.7838 67.5164 81.0848 67.33 81.3715C67.158 81.6439 66.9071 81.7801 66.5774 81.7801C66.3911 81.7801 66.2191 81.7299 66.0614 81.6295C65.9037 81.5292 65.7818 81.393 65.6958 81.221L59.9761 67.2013H60.6212L54.8155 81.221C54.7438 81.4073 54.6291 81.5507 54.4714 81.651C54.3138 81.7371 54.1489 81.7801 53.9769 81.7801ZM55.31 77.8666L56.0196 76.2969H64.6422L65.3733 77.8666H55.31Z" fill="#3B3A39"/>
<path d="M85.3735 85.5C85.0867 85.5 84.8574 85.414 84.6854 85.242C84.5277 85.07 84.4488 84.8478 84.4488 84.5754V81.7801H71.7193C71.4469 81.7801 71.2247 81.694 71.0527 81.522C70.8807 81.35 70.7946 81.1278 70.7946 80.8554V65.9111C70.7946 65.6387 70.8807 65.4165 71.0527 65.2445C71.2247 65.0725 71.4469 64.9865 71.7193 64.9865C71.9916 64.9865 72.2138 65.0725 72.3858 65.2445C72.5579 65.4165 72.6439 65.6387 72.6439 65.9111V80.0813H82.2341V65.9111C82.2341 65.6387 82.3201 65.4165 82.4921 65.2445C82.6641 65.0725 82.8863 64.9865 83.1587 64.9865C83.431 64.9865 83.6532 65.0725 83.8253 65.2445C83.9973 65.4165 84.0833 65.6387 84.0833 65.9111V80.0813H85.3735C85.6458 80.0813 85.868 80.1674 86.04 80.3394C86.2121 80.5114 86.2981 80.7336 86.2981 81.006V84.5754C86.2981 84.8478 86.2121 85.07 86.04 85.242C85.868 85.414 85.6458 85.5 85.3735 85.5Z" fill="#3B3A39"/>
<path d="M91.0167 81.7801C90.7587 81.7801 90.5365 81.694 90.3501 81.522C90.1638 81.35 90.0706 81.1278 90.0706 80.8554V65.9111C90.0706 65.6387 90.1638 65.4165 90.3501 65.2445C90.5365 65.0725 90.7587 64.9865 91.0167 64.9865C91.2891 64.9865 91.5041 65.0725 91.6618 65.2445C91.8338 65.4165 91.9198 65.6387 91.9198 65.9111V78.8127L102.521 65.3305C102.707 65.1012 102.944 64.9865 103.23 64.9865C103.503 64.9865 103.725 65.0725 103.897 65.2445C104.069 65.4165 104.155 65.6387 104.155 65.9111V80.8554C104.155 81.1278 104.069 81.35 103.897 81.522C103.725 81.694 103.503 81.7801 103.23 81.7801C102.972 81.7801 102.75 81.694 102.564 81.522C102.392 81.35 102.306 81.1278 102.306 80.8554V67.9753L91.7263 81.4575C91.6403 81.5579 91.5328 81.6367 91.4038 81.694C91.2747 81.7514 91.1457 81.7801 91.0167 81.7801Z" fill="#3B3A39"/>
<path d="M119.26 81.7801C119.002 81.7801 118.78 81.694 118.593 81.522C118.421 81.35 118.335 81.1278 118.335 80.8554V75.2432H114.078V75.0282C113.103 75.0282 112.214 74.8204 111.411 74.4046C110.623 73.9889 109.992 73.4227 109.519 72.7059C109.046 71.9748 108.809 71.1434 108.809 70.2116C108.809 69.1795 109.039 68.2764 109.498 67.5023C109.971 66.7139 110.616 66.0975 111.433 65.6531C112.25 65.2087 113.196 64.9865 114.271 64.9865H119.26C119.532 64.9865 119.754 65.0725 119.926 65.2445C120.098 65.4165 120.184 65.6387 120.184 65.9111V80.8554C120.184 81.1278 120.098 81.35 119.926 81.522C119.754 81.694 119.532 81.7801 119.26 81.7801ZM109.734 81.7801C109.333 81.7801 109.053 81.6367 108.896 81.35C108.752 81.049 108.795 80.7193 109.025 80.3609L112.83 74.3186L114.68 74.8347L110.551 81.307C110.451 81.4647 110.336 81.5865 110.207 81.6725C110.078 81.7442 109.92 81.7801 109.734 81.7801ZM114.271 73.5445H118.335V66.7282H114.271C113.554 66.7282 112.917 66.8715 112.357 67.1582C111.813 67.4306 111.383 67.8248 111.067 68.3409C110.766 68.857 110.616 69.4805 110.616 70.2116C110.616 70.8997 110.766 71.4946 111.067 71.9963C111.383 72.4837 111.813 72.8636 112.357 73.136C112.917 73.4084 113.554 73.5445 114.271 73.5445Z" fill="#3B3A39"/>
<g clip-path="url(#clip0_161_2983)">
<path d="M79.5142 19.0612C79.0899 8.76413 70.6401 0.535356 60.2458 0.500001C49.6039 0.464646 40.8713 9.12652 40.8271 19.7682C40.8182 22.4729 41.3574 25.0449 42.3473 27.3872C46.5899 38.8862 58.3896 52.6303 59.9894 54.1771C60.0867 54.2743 60.2546 54.2743 60.3518 54.1859C62.1019 52.5773 75.7754 37.5958 78.8778 24.7886C78.9132 24.6649 78.9397 24.5411 78.9662 24.4174C78.9927 24.2936 79.0281 24.1699 79.0546 24.0462C79.249 23.1623 79.3816 22.2431 79.4523 21.315C79.4523 21.2797 79.4612 21.2443 79.4612 21.2089C79.4965 20.7582 79.5142 20.2986 79.5142 19.839C79.5319 19.565 79.523 19.3086 79.5142 19.0612ZM60.175 29.8885C54.6332 29.8885 50.1431 25.3985 50.1431 19.8566C50.1431 14.3148 54.6332 9.82477 60.175 9.82477C65.7169 9.82477 70.207 14.3148 70.207 19.8566C70.2158 25.3985 65.7169 29.8885 60.175 29.8885Z" fill="url(#paint0_linear_161_2983)"/>
<path d="M60.1748 6.93452C53.0331 6.93452 47.2526 12.7238 47.2526 19.8566C47.2526 26.9982 53.0419 32.7787 60.1748 32.7787C67.3165 32.7787 73.097 26.9894 73.097 19.8566C73.1058 12.715 67.3165 6.93452 60.1748 6.93452ZM60.1748 29.8885C54.6329 29.8885 50.1428 25.3985 50.1428 19.8566C50.1428 14.3148 54.6329 9.82476 60.1748 9.82476C65.7167 9.82476 70.2067 14.3148 70.2067 19.8566C70.2156 25.3985 65.7167 29.8885 60.1748 29.8885Z" fill="url(#paint1_linear_161_2983)"/>
<path opacity="0.2" d="M60.1131 38.515C53.8818 38.515 48.2515 35.8988 44.2741 31.7093C49.4006 41.6616 58.6017 52.8336 59.9982 54.1859C60.0954 54.2832 60.2634 54.2832 60.3606 54.1948C61.8278 52.8425 71.7095 41.4406 76.6769 30.905C72.6729 35.5629 66.7422 38.515 60.1131 38.515Z" fill="url(#paint2_linear_161_2983)"/>
<path opacity="0.1" d="M60.1754 1.63135C65.1251 1.63135 69.7301 3.20463 73.5749 5.90041C70.1013 2.55057 65.3814 0.5 60.1754 0.5C54.9694 0.5 50.2495 2.5594 46.7671 5.90041C50.6208 3.20463 55.2258 1.63135 60.1754 1.63135Z" fill="url(#paint3_linear_161_2983)"/>
<path d="M60.1794 22.4324C61.6044 22.4324 62.7597 21.2772 62.7597 19.8522C62.7597 18.4272 61.6044 17.2721 60.1794 17.2721C58.7543 17.2721 57.5991 18.4272 57.5991 19.8522C57.5991 21.2772 58.7543 22.4324 60.1794 22.4324Z" fill="url(#paint4_linear_161_2983)"/>
<path d="M56.5787 14.5207H56.4567V16.3324H56.5787V14.5207Z" fill="url(#paint5_linear_161_2983)"/>
<path d="M56.5199 16.2654H54.6592V16.3874H56.5199V16.2654Z" fill="url(#paint6_linear_161_2983)"/>
<path d="M65.6955 16.2652H63.8348V16.3872H65.6955V16.2652Z" fill="url(#paint7_linear_161_2983)"/>
<path d="M63.893 14.5207H63.771V16.3324H63.893V14.5207Z" fill="url(#paint8_linear_161_2983)"/>
<path d="M63.893 23.5671H63.771V25.3788H63.893V23.5671Z" fill="url(#paint9_linear_161_2983)"/>
<path d="M65.6955 23.5001H63.8348V23.6221H65.6955V23.5001Z" fill="url(#paint10_linear_161_2983)"/>
<path d="M56.5199 23.5001H54.6592V23.6221H56.5199V23.5001Z" fill="url(#paint11_linear_161_2983)"/>
<path d="M56.5787 23.5671H56.4567V25.3788H56.5787V23.5671Z" fill="url(#paint12_linear_161_2983)"/>
<path d="M69.3786 20.1147H64.7422C64.5958 20.1147 64.4799 19.9988 64.4799 19.8524C64.4799 19.706 64.5958 19.5901 64.7422 19.5901H69.3786C69.525 19.5901 69.6409 19.706 69.6409 19.8524C69.6409 19.9988 69.525 20.1147 69.3786 20.1147Z" fill="url(#paint13_linear_161_2983)"/>
<path d="M55.6657 20.1147H50.9805C50.8341 20.1147 50.7182 19.9988 50.7182 19.8524C50.7182 19.706 50.8341 19.5901 50.9805 19.5901H55.6657C55.8121 19.5901 55.928 19.706 55.928 19.8524C55.928 19.9988 55.8121 20.1147 55.6657 20.1147Z" fill="url(#paint14_linear_161_2983)"/>
<path d="M60.1746 29.3137C60.0282 29.3137 59.9123 29.1978 59.9123 29.0514V24.4153C59.9123 24.2689 60.0282 24.153 60.1746 24.153C60.321 24.153 60.4369 24.2689 60.4369 24.4153V29.0514C60.4369 29.1978 60.321 29.3137 60.1746 29.3137Z" fill="url(#paint15_linear_161_2983)"/>
<path d="M60.1746 15.6007C60.0282 15.6007 59.9123 15.4848 59.9123 15.3384V10.6535C59.9123 10.5071 60.0282 10.3912 60.1746 10.3912C60.321 10.3912 60.4369 10.5071 60.4369 10.6535V15.3384C60.4369 15.4848 60.321 15.6007 60.1746 15.6007Z" fill="url(#paint16_linear_161_2983)"/>
</g>
<defs>
<linearGradient id="paint0_linear_161_2983" x1="60.1787" y1="7.25352" x2="60.1787" y2="51.8493" gradientUnits="userSpaceOnUse">
<stop stop-color="#F22934"/>
<stop offset="1" stop-color="#B80007"/>
</linearGradient>
<linearGradient id="paint1_linear_161_2983" x1="60.1785" y1="6.2892" x2="60.1785" y2="28.1508" gradientUnits="userSpaceOnUse">
<stop stop-color="#A12025"/>
<stop offset="1" stop-color="#C1272D"/>
</linearGradient>
<linearGradient id="paint2_linear_161_2983" x1="60.477" y1="33.8331" x2="60.477" y2="53.2124" gradientUnits="userSpaceOnUse">
<stop stop-color="#E33940"/>
<stop offset="1" stop-color="#B80007"/>
</linearGradient>
<linearGradient id="paint3_linear_161_2983" x1="60.1758" y1="1.17833" x2="60.1758" y2="5.65755" gradientUnits="userSpaceOnUse">
<stop stop-color="white"/>
<stop offset="1"/>
</linearGradient>
<linearGradient id="paint4_linear_161_2983" x1="60.1796" y1="17.919" x2="60.1796" y2="22.2009" gradientUnits="userSpaceOnUse">
<stop stop-color="#E33940"/>
<stop offset="1" stop-color="#B80007"/>
</linearGradient>
<linearGradient id="paint5_linear_161_2983" x1="56.5177" y1="14.7478" x2="56.5177" y2="16.2511" gradientUnits="userSpaceOnUse">
<stop stop-color="#E33940"/>
<stop offset="1" stop-color="#B80007"/>
</linearGradient>
<linearGradient id="paint6_linear_161_2983" x1="55.5896" y1="16.2806" x2="55.5896" y2="16.3819" gradientUnits="userSpaceOnUse">
<stop stop-color="#E33940"/>
<stop offset="1" stop-color="#B80007"/>
</linearGradient>
<linearGradient id="paint7_linear_161_2983" x1="64.7652" y1="16.2805" x2="64.7652" y2="16.3818" gradientUnits="userSpaceOnUse">
<stop stop-color="#E33940"/>
<stop offset="1" stop-color="#B80007"/>
</linearGradient>
<linearGradient id="paint8_linear_161_2983" x1="63.832" y1="14.7478" x2="63.832" y2="16.2511" gradientUnits="userSpaceOnUse">
<stop stop-color="#E33940"/>
<stop offset="1" stop-color="#B80007"/>
</linearGradient>
<linearGradient id="paint9_linear_161_2983" x1="63.832" y1="23.7942" x2="63.832" y2="25.2975" gradientUnits="userSpaceOnUse">
<stop stop-color="#E33940"/>
<stop offset="1" stop-color="#B80007"/>
</linearGradient>
<linearGradient id="paint10_linear_161_2983" x1="64.7652" y1="23.5154" x2="64.7652" y2="23.6166" gradientUnits="userSpaceOnUse">
<stop stop-color="#E33940"/>
<stop offset="1" stop-color="#B80007"/>
</linearGradient>
<linearGradient id="paint11_linear_161_2983" x1="55.5896" y1="23.5154" x2="55.5896" y2="23.6166" gradientUnits="userSpaceOnUse">
<stop stop-color="#E33940"/>
<stop offset="1" stop-color="#B80007"/>
</linearGradient>
<linearGradient id="paint12_linear_161_2983" x1="56.5177" y1="23.7942" x2="56.5177" y2="25.2975" gradientUnits="userSpaceOnUse">
<stop stop-color="#E33940"/>
<stop offset="1" stop-color="#B80007"/>
</linearGradient>
<linearGradient id="paint13_linear_161_2983" x1="67.0606" y1="19.6558" x2="67.0606" y2="20.0912" gradientUnits="userSpaceOnUse">
<stop stop-color="#E33940"/>
<stop offset="1" stop-color="#B80007"/>
</linearGradient>
<linearGradient id="paint14_linear_161_2983" x1="53.3233" y1="19.6558" x2="53.3233" y2="20.0912" gradientUnits="userSpaceOnUse">
<stop stop-color="#E33940"/>
<stop offset="1" stop-color="#B80007"/>
</linearGradient>
<linearGradient id="paint15_linear_161_2983" x1="60.1746" y1="24.8" x2="60.1746" y2="29.0822" gradientUnits="userSpaceOnUse">
<stop stop-color="#E33940"/>
<stop offset="1" stop-color="#B80007"/>
</linearGradient>
<linearGradient id="paint16_linear_161_2983" x1="60.1746" y1="11.0443" x2="60.1746" y2="15.367" gradientUnits="userSpaceOnUse">
<stop stop-color="#E33940"/>
<stop offset="1" stop-color="#B80007"/>
</linearGradient>
<clipPath id="clip0_161_2983">
<rect width="38.7048" height="53.7566" fill="white" transform="translate(40.827 0.5)"/>
</clipPath>
</defs>
</svg>
