<svg width="20" height="20" viewBox="0 0 20 20" fill="none" xmlns="http://www.w3.org/2000/svg">
<path fill-rule="evenodd" clip-rule="evenodd" d="M14.3855 1.81398C14.955 1.24446 15.8784 1.24446 16.4479 1.81398L18.6027 3.9688C19.1722 4.53831 19.1722 5.46168 18.6027 6.03119L16.2753 8.3586L16.2649 8.36876L7.24149 16.982C7.07663 17.1394 6.87719 17.2559 6.65916 17.3223L2.05698 18.7229C1.83616 18.7901 1.59627 18.7302 1.43306 18.5669C1.26984 18.4037 1.20987 18.1638 1.27708 17.943L2.67175 13.3605C2.74479 13.1206 2.8785 12.9035 3.05995 12.7303L12.0632 4.13625L14.3855 1.81398ZM12.4898 5.45705L3.92305 13.6344C3.89713 13.6592 3.87802 13.6902 3.86759 13.7245L2.81413 17.1859L6.2952 16.1264C6.32635 16.1169 6.35484 16.1003 6.3784 16.0778L14.9391 7.90627L12.4898 5.45705ZM15.8333 7.03278L17.7188 5.14731C17.8002 5.06595 17.8002 4.93404 17.7188 4.85268L15.564 2.69786C15.4826 2.6165 15.3507 2.6165 15.2694 2.69786L13.3839 4.58333L15.8333 7.03278Z" fill="#E33940"/>
</svg>
