<svg width="13" height="16" viewBox="0 0 13 16" fill="none" xmlns="http://www.w3.org/2000/svg">
<path d="M6.36794 8.32227C7.44832 8.32227 8.32413 7.42684 8.32413 6.32227C8.32413 5.2177 7.44832 4.32227 6.36794 4.32227C5.28756 4.32227 4.41174 5.2177 4.41174 6.32227C4.41174 7.42684 5.28756 8.32227 6.36794 8.32227Z" stroke="#E33940" stroke-width="1.5" stroke-linecap="round" stroke-linejoin="round"/>
<path d="M6.36801 0.989258C4.9845 0.989258 3.65766 1.55116 2.67937 2.55135C1.70109 3.55155 1.15149 4.9081 1.15149 6.32259C1.15149 7.58392 1.41362 8.40926 2.12959 9.32259L6.36801 14.3226L10.6064 9.32259C11.3224 8.40926 11.5845 7.58392 11.5845 6.32259C11.5845 4.9081 11.0349 3.55155 10.0566 2.55135C9.07836 1.55116 7.75152 0.989258 6.36801 0.989258V0.989258Z" stroke="#E33940" stroke-width="1.5" stroke-linecap="round" stroke-linejoin="round"/>
</svg>
