<svg width="24" height="25" viewBox="0 0 24 25" fill="none" xmlns="http://www.w3.org/2000/svg">
<g clip-path="url(#clip0_201_2670)">
<path d="M4 4.5H10V10.5H4V4.5ZM20 4.5V10.5H14V4.5H20ZM14 15.5H16V13.5H14V11.5H16V13.5H18V11.5H20V13.5H18V15.5H20V18.5H18V20.5H16V18.5H13V20.5H11V16.5H14V15.5ZM16 15.5V18.5H18V15.5H16ZM4 20.5V14.5H10V20.5H4ZM6 6.5V8.5H8V6.5H6ZM16 6.5V8.5H18V6.5H16ZM6 16.5V18.5H8V16.5H6ZM4 11.5H6V13.5H4V11.5ZM9 11.5H13V15.5H11V13.5H9V11.5ZM11 6.5H13V10.5H11V6.5ZM2 2.5V6.5H0V2.5C0 1.96957 0.210714 1.46086 0.585786 1.08579C0.960859 0.710714 1.46957 0.5 2 0.5L6 0.5V2.5H2ZM22 0.5C22.5304 0.5 23.0391 0.710714 23.4142 1.08579C23.7893 1.46086 24 1.96957 24 2.5V6.5H22V2.5H18V0.5H22ZM2 18.5V22.5H6V24.5H2C1.46957 24.5 0.960859 24.2893 0.585786 23.9142C0.210714 23.5391 0 23.0304 0 22.5V18.5H2ZM22 22.5V18.5H24V22.5C24 23.0304 23.7893 23.5391 23.4142 23.9142C23.0391 24.2893 22.5304 24.5 22 24.5H18V22.5H22Z" fill="#E33940"/>
</g>
<defs>
<clipPath id="clip0_201_2670">
<rect width="24" height="24" fill="white" transform="translate(0 0.5)"/>
</clipPath>
</defs>
</svg>
