<svg width="12" height="10" viewBox="0 0 12 10" fill="none" xmlns="http://www.w3.org/2000/svg">
<path d="M3.9998 6.76265L9.8998 0.862646C10.0831 0.679313 10.3165 0.587646 10.5998 0.587646C10.8831 0.587646 11.1165 0.679313 11.2998 0.862646C11.4831 1.04598 11.5748 1.27931 11.5748 1.56265C11.5748 1.84598 11.4831 2.07931 11.2998 2.26265L4.6998 8.86265C4.4998 9.06265 4.26647 9.16265 3.9998 9.16265C3.73314 9.16265 3.4998 9.06265 3.2998 8.86265L0.699804 6.26265C0.516471 6.07931 0.424805 5.84598 0.424805 5.56265C0.424805 5.27931 0.516471 5.04598 0.699804 4.86265C0.883138 4.67931 1.11647 4.58765 1.3998 4.58765C1.68314 4.58765 1.91647 4.67931 2.0998 4.86265L3.9998 6.76265Z" fill="#E33940"/>
</svg>
