<svg width="20" height="19" viewBox="0 0 20 19" fill="none" xmlns="http://www.w3.org/2000/svg">
<path fill-rule="evenodd" clip-rule="evenodd" d="M0.424273 0.312469C0.800315 -0.0188055 1.33771 -0.0938328 1.7901 0.121783L19.4051 8.51727C19.7685 8.69049 20 9.05722 20 9.45983C20 9.86243 19.7685 10.2292 19.4051 10.4024L1.7901 18.7979C1.33771 19.0135 0.800315 18.9385 0.424273 18.6072C0.10141 18.3228 -0.052715 17.8924 0.0161601 17.4677L1.31473 9.45983L0.0161601 1.45196C-0.052715 1.02723 0.10141 0.596896 0.424273 0.312469ZM2.58834 10.1431L1.40022 17.4699L18.2065 9.45983L1.40022 1.4498L2.58834 8.77655H9.29527C9.67263 8.77655 9.97855 9.08246 9.97855 9.45983C9.97855 9.83719 9.67263 10.1431 9.29527 10.1431H2.58834Z" fill="#E33940"/>
</svg>
