<svg width="17" height="16" viewBox="0 0 17 16" fill="none" xmlns="http://www.w3.org/2000/svg">
<path fill-rule="evenodd" clip-rule="evenodd" d="M13.5375 3C13.5375 3.82843 12.864 4.5 12.0333 4.5C11.2026 4.5 10.5292 3.82843 10.5292 3C10.5292 2.17157 11.2026 1.5 12.0333 1.5C12.864 1.5 13.5375 2.17157 13.5375 3ZM15.0417 3C15.0417 4.65685 13.6948 6 12.0333 6C11.1749 6 10.4004 5.64143 9.85231 5.06628L5.92048 7.24457C5.98326 7.48592 6.01667 7.73907 6.01667 8C6.01667 8.26094 5.98325 8.51411 5.92047 8.75547L9.85228 10.9338C10.4004 10.3586 11.1749 10 12.0333 10C13.6948 10 15.0417 11.3431 15.0417 13C15.0417 14.6569 13.6948 16 12.0333 16C10.3718 16 9.025 14.6569 9.025 13C9.025 12.7391 9.0584 12.486 9.12117 12.2446L5.18931 10.0663C4.64122 10.6414 3.86676 11 3.00833 11C1.34688 11 0 9.65685 0 8C0 6.34315 1.34688 5 3.00833 5C3.86678 5 4.64124 5.35857 5.18934 5.9337L9.12118 3.7554C9.0584 3.51406 9.025 3.26092 9.025 3C9.025 1.34315 10.3718 0 12.0333 0C13.6948 0 15.0417 1.34315 15.0417 3ZM13.5375 13C13.5375 13.8284 12.864 14.5 12.0333 14.5C11.2026 14.5 10.5292 13.8284 10.5292 13C10.5292 12.1716 11.2026 11.5 12.0333 11.5C12.864 11.5 13.5375 12.1716 13.5375 13ZM4.5125 8C4.5125 8.82843 3.83906 9.5 3.00833 9.5C2.1776 9.5 1.50417 8.82843 1.50417 8C1.50417 7.17157 2.1776 6.5 3.00833 6.5C3.83906 6.5 4.5125 7.17157 4.5125 8Z" fill="#E33940"/>
</svg>
