<svg width="20" height="20" viewBox="0 0 20 20" fill="none" xmlns="http://www.w3.org/2000/svg">
<path fill-rule="evenodd" clip-rule="evenodd" d="M13.3333 1.45833V2.5H17.7083C18.0535 2.5 18.3333 2.77982 18.3333 3.125C18.3333 3.47018 18.0535 3.75 17.7083 3.75H2.29167C1.94649 3.75 1.66667 3.47018 1.66667 3.125C1.66667 2.77982 1.94649 2.5 2.29167 2.5H6.66667V1.45833C6.66667 0.652918 7.31959 0 8.125 0H11.875C12.6804 0 13.3333 0.652918 13.3333 1.45833ZM7.91667 1.45833C7.91667 1.34327 8.00994 1.25 8.125 1.25H11.875C11.9901 1.25 12.0833 1.34327 12.0833 1.45833V2.5H7.91667V1.45833Z" fill="#E33940"/>
<path d="M4.16381 5.14812C4.13056 4.80455 3.82508 4.55298 3.48151 4.58623C3.13794 4.61948 2.88637 4.92496 2.91962 5.26853L4.09674 17.4321C4.16908 18.1796 4.79729 18.75 5.54829 18.75H14.4518C15.2028 18.75 15.831 18.1796 15.9033 17.4321L17.0805 5.26853C17.1137 4.92496 16.8622 4.61948 16.5186 4.58623C16.175 4.55298 15.8695 4.80455 15.8363 5.14812L14.6592 17.3117C14.6488 17.4185 14.5591 17.5 14.4518 17.5H5.54829C5.44101 17.5 5.35126 17.4185 5.34093 17.3117L4.16381 5.14812Z" fill="#E33940"/>
<path d="M7.67165 6.25107C8.01623 6.2308 8.31201 6.49371 8.33227 6.83829L8.74894 13.9216C8.76921 14.2662 8.5063 14.562 8.16172 14.5822C7.81714 14.6025 7.52137 14.3396 7.5011 13.995L7.08443 6.9117C7.06416 6.56711 7.32707 6.27134 7.67165 6.25107Z" fill="#E33940"/>
<path d="M12.9156 6.9117C12.9359 6.56711 12.673 6.27134 12.3284 6.25107C11.9838 6.2308 11.688 6.49371 11.6678 6.83829L11.2511 13.9216C11.2308 14.2662 11.4937 14.562 11.8383 14.5822C12.1829 14.6025 12.4787 14.3396 12.4989 13.995L12.9156 6.9117Z" fill="#E33940"/>
</svg>
